<?xml version="1.0" encoding="UTF-8" standalone="no"?>
<!-- Created with Inkscape (http://www.inkscape.org/) -->

<svg
   xmlns:dc="http://purl.org/dc/elements/1.1/"
   xmlns:cc="http://creativecommons.org/ns#"
   xmlns:rdf="http://www.w3.org/1999/02/22-rdf-syntax-ns#"
   xmlns:svg="http://www.w3.org/2000/svg"
   xmlns="http://www.w3.org/2000/svg"
   xmlns:xlink="http://www.w3.org/1999/xlink"
   xmlns:sodipodi="http://sodipodi.sourceforge.net/DTD/sodipodi-0.dtd"
   xmlns:inkscape="http://www.inkscape.org/namespaces/inkscape"
   id="svg2"
   sodipodi:docname="cert-ninja-seal.svg"
   viewBox="0 0 128 128"
   version="1.1"
   inkscape:version="0.92.2 (5c3e80d, 2017-08-06)">
  <defs
     id="defs4">
    <linearGradient
       id="linearGradient3860"
       inkscape:collect="always">
      <stop
         id="stop3862"
         style="stop-color:#aa0000"
         offset="0" />
      <stop
         id="stop3868"
         style="stop-color:#ff0000"
         offset=".52294" />
      <stop
         id="stop3864"
         style="stop-color:#ffaaaa"
         offset="1" />
    </linearGradient>
    <linearGradient
       id="linearGradient3792"
       inkscape:collect="always">
      <stop
         id="stop3794"
         style="stop-color:#fff6d5"
         offset="0" />
      <stop
         id="stop3800"
         style="stop-color:#ffcc00"
         offset=".53957" />
      <stop
         id="stop3796"
         style="stop-color:#806600"
         offset="1" />
    </linearGradient>
    <radialGradient
       id="radialGradient3798"
       xlink:href="#linearGradient3792"
       gradientUnits="userSpaceOnUse"
       cy="68.019"
       cx="54.995"
       gradientTransform="matrix(1.1961 0 0 1.2082 -15.627 875.38)"
       r="61.344"
       inkscape:collect="always" />
    <radialGradient
       id="radialGradient3854"
       xlink:href="#linearGradient3792"
       gradientUnits="userSpaceOnUse"
       cy="68.862"
       cx="58.25"
       gradientTransform="matrix(2.8056 -.65556 .65556 2.8056 -150.32 -86.148)"
       r="45"
       inkscape:collect="always" />
    <linearGradient
       id="linearGradient3908"
       y2="167.77"
       xlink:href="#linearGradient3860"
       gradientUnits="userSpaceOnUse"
       x2="112.43"
       gradientTransform="matrix(.87138 0 0 .70646 -4.2816 906.7)"
       y1="174.67"
       x1="87.151"
       inkscape:collect="always" />
    <linearGradient
       id="linearGradient3911"
       y2="151.22"
       xlink:href="#linearGradient3860"
       gradientUnits="userSpaceOnUse"
       x2="53.337"
       gradientTransform="matrix(.87138 0 0 .70646 -4.2816 906.7)"
       y1="155.28"
       x1="75.502"
       inkscape:collect="always" />
    <radialGradient
       id="radialGradient3913"
       xlink:href="#linearGradient3792"
       gradientUnits="userSpaceOnUse"
       cy="111.65"
       cx="102.58"
       gradientTransform="matrix(1.6946 0 0 1.7443 -73.338 809.43)"
       r="61.344"
       inkscape:collect="always" />
  </defs>
  <sodipodi:namedview
     id="base"
     bordercolor="#666666"
     inkscape:pageshadow="2"
     inkscape:window-y="25"
     pagecolor="#ffffff"
     inkscape:window-height="1029"
     inkscape:window-maximized="1"
     inkscape:zoom="4"
     inkscape:window-x="0"
     showgrid="false"
     borderopacity="1.0"
     inkscape:current-layer="text854"
     inkscape:cx="66.8125"
     inkscape:cy="67.563782"
     inkscape:window-width="1920"
     inkscape:pageopacity="0.0"
     inkscape:document-units="px">
    <inkscape:grid
       id="grid2999"
       enabled="true"
       visible="true"
       snapvisiblegridlinesonly="true"
       type="xygrid"
       empspacing="5" />
  </sodipodi:namedview>
  <g
     id="layer1"
     inkscape:label="Layer 1"
     inkscape:groupmode="layer"
     transform="translate(0 -924.36)">
    <path
       id="path3856"
       style="fill:url(#linearGradient3911)"
       inkscape:connector-curvature="0"
       d="m50.615 987.66-19.17 55.405 15.685-6.3729 11.546 7.6735 5.8818-57.226-6.0997-4.9422z" />
    <path
       id="path3858"
       d="m80.896 987.66 19.17 55.405-15.685-6.3729-11.546 7.6735-5.8818-57.226 6.0997-4.9422z"
       style="fill:url(#linearGradient3908)"
       inkscape:connector-curvature="0" />
    <path
       id="path3001"
       sodipodi:nodetypes="ccccccccccccccccccccccccccccccccccccccccccccccccccc"
       style="fill-rule:evenodd;fill:url(#radialGradient3798)"
       inkscape:connector-curvature="0"
       d="m66.241 928.84-4.6361 8.9852-6.5347-7.7268-2.1635 9.9124-8.3229-5.7841 0.48569 10.111-9.5371-3.4219 3.0687 9.6475-10.067-0.83892 4.5699 7.1087-8.3892 1.0597 7.1308 7.197-9.3605 3.8413 8.7424 5.0997-8.058 6.1373 9.7579 2.6713-6.2036 8.0138 10.133 0.0442-3.9076 9.3384 8.1463-2.1415-1.5674 8.2788 9.0515-4.5478 0.75061 10.089 7.5502-6.7334 3.3557 9.5592 5.5413-8.4554 5.7179 8.3671 3.179-9.6254 7.6606 6.6008 0.48569-8.3891 7.3957 4.04-1.5454-10.023 9.8462 2.4063-4.0842-9.2721 10.133-0.22077-6.336-7.9035 9.7138-2.8258-8.1463-5.9828 8.6541-5.2543-7.8593-3.0687 6.1373-5.7841-10.001-1.6337 5.3205-8.6099-10.067 0.99345 2.9141-9.6917-9.4709 3.5764 0.30907-10.111-8.2125 5.9166-2.3181-9.8462-5.5192 7.771z" />
    <path
       id="path3843"
       style="fill-rule:evenodd;fill:url(#radialGradient3913)"
       inkscape:connector-curvature="0"
       d="m66.109 931.49-3.5323 6.8438a1.0938 1.0938 0 0 1 -1.8103 0.19869l-5.0997-6.027-1.6999 7.7489a1.0938 1.0938 0 0 1 -1.6778 0.6623l-6.5126-4.5257 0.3753 7.9035a1.0938 1.0938 0 0 1 -1.4571 1.0818l-7.4399-2.6713 2.3843 7.5282a1.0938 1.0938 0 0 1 -1.1259 1.4129l-7.8593-0.66229 3.3777 5.2542a1.0938 1.0938 0 0 1 -0.79476 1.6778l-6.1815 0.77268 5.5633 5.6296a1.0938 1.0938 0 0 1 -0.35323 1.7882l-7.3074 3.0024 6.8217 3.9738a1.0938 1.0938 0 0 1 0.11038 1.8103l-6.2919 4.7906 7.6165 2.0973a1.0938 1.0938 0 0 1 0.574 1.722l-4.8348 6.2477 7.9035 0.0442a1.0938 1.0938 0 0 1 1.0155 1.5233l-3.0466 7.2853 5.9828-1.5674a1.0938 1.0938 0 0 1 1.3688 1.2584l-1.148 6.1152 7.0646-3.5544a1.0938 1.0938 0 0 1 1.5674 0.8831l0.59607 7.8814 5.8945-5.2543a1.0938 1.0938 0 0 1 1.7661 0.4636l2.6271 7.462 4.327-6.601a1.0938 1.0938 0 0 1 1.8103 -0.023l4.4595 6.5346 2.4947-7.5281a1.0938 1.0938 0 0 1 1.7441 -0.4858l6.0049 5.166 0.35323-6.1815a1.0938 1.0938 0 0 1 1.6116 -0.8831l5.453 2.9804-1.2142-7.8372a1.0938 1.0938 0 0 1 1.3467 -1.2363l7.7048 1.8766-3.2011-7.2412a1.0938 1.0938 0 0 1 0.97137 -1.5454l7.9035-0.17663-4.9452-6.1594a1.0938 1.0938 0 0 1 0.55192 -1.7441l7.5723-2.2077-6.336-4.6582a1.0938 1.0938 0 0 1 0.06618 -1.8103l6.7776-4.1063-5.8062-2.2739a1.0938 1.0938 0 0 1 -0.35323 -1.8103l4.5257-4.2608-7.8152-1.2805a1.0938 1.0938 0 0 1 -0.75061 -1.6557l4.1725-6.7334-7.8814 0.77269a1.0938 1.0938 0 0 1 -1.148 -1.3908l2.2739-7.5944-7.3957 2.8037a1.0938 1.0938 0 0 1 -1.5012 -1.0597l0.24284-7.8814-6.4022 4.614a1.0938 1.0938 0 0 1 -1.6999 -0.64022l-1.7661-7.484-4.1283 5.8062a1.0938 1.0938 0 0 1 -1.8986 -0.24285l-2.5609-6.623z" />
    <path
       id="path3022"
       sodipodi:rx="45"
       sodipodi:ry="45"
       style="fill-rule:evenodd;fill:url(#radialGradient3854)"
       sodipodi:type="arc"
       d="M 127,92.362183 A 45,45 0 0 1 82,137.36218 45,45 0 0 1 37,92.362183 a 45,45 0 0 1 45,-45 45,45 0 0 1 45,45 z"
       transform="matrix(.70646 0 0 .70646 7.0317 906.52)"
       sodipodi:cy="92.362183"
       sodipodi:cx="82" />
    <text
       xml:space="preserve"
       style="font-style:normal;font-weight:normal;font-size:40px;line-height:1.25;font-family:sans-serif;letter-spacing:0px;word-spacing:0px;fill:#000000;fill-opacity:1;stroke:none"
       x="54.25"
       y="970.85999"
       id="text840"><tspan
         sodipodi:role="line"
         id="tspan838"
         x="54.25"
         y="1006.2506" /></text>
    <g
       aria-label="Cert
Ninja"
       style="font-style:normal;font-weight:normal;font-size:19.50028801px;line-height:1.25;font-family:sans-serif;letter-spacing:0px;word-spacing:0px;fill:#000000;fill-opacity:1;stroke:none;stroke-width:0.48750722"
       id="text854">
      <path
         d="m 55.798583,955.30657 q -1.104508,0 -1.104508,1.03786 0,1.07595 1.104508,1.07595 1.085466,0 1.085466,-1.07595 0,-1.03786 -1.085466,-1.03786 z m -0.06665,2.78984 q -0.714122,-0.0571 -1.209246,-0.69508 -0.485603,-0.63795 -0.485603,-1.41872 0,-0.76173 0.485603,-1.31398 0.495124,-0.55226 1.237811,-0.58082 1.694849,0.47608 1.618676,-0.63795 -0.07617,-1.12355 -2.437536,-1.67581 l -1.142595,0.0476 q -3.570609,2.37088 -3.637261,5.05598 -0.06665,2.6851 3.085007,5.34163 0.723643,0.20948 1.456808,0.12379 0.742687,-0.0857 1.504417,-0.0857 0.809338,0.0476 1.399679,-0.89503 0.599862,-0.95216 0.561776,-1.42825 0.266605,0.219 0.571297,0.39991 0.304692,0.18091 0.58082,0.33326 -0.514168,0.98073 -1.22829,1.79959 -0.7046,0.80933 -1.885282,1.11403 l -3.922909,-0.12378 q -3.037399,-3.30401 -3.465872,-6.32236 -0.428473,-3.01836 3.465872,-5.37972 l -4.018126,-0.01 -1.742457,-1.18068 13.834921,0.0857 1.294941,1.02834 -4.199037,0.019 q 0.533211,0.46656 0.733165,0.9712 0.199954,0.50465 0.333257,0.91408 0.257084,0.98073 -0.656992,2.82792 -0.914076,1.8472 -2.132844,1.68533 z"
         style="font-style:normal;font-variant:normal;font-weight:normal;font-stretch:normal;font-size:19.50028801px;font-family:Ani;-inkscape-font-specification:'Ani, Normal';font-variant-ligatures:normal;font-variant-caps:normal;font-variant-numeric:normal;font-feature-settings:normal;text-align:center;writing-mode:lr-tb;text-anchor:middle;stroke-width:0.48750722"
         id="path836" />
      <path
         d="m 62.520851,961.70511 5.97958,-3.46587 -5.351153,-1.57107 -2.723185,2.40897 -0.209475,1.8948 2.723184,2.61845 2.418493,0.20947 2.827923,-2.09475 -1.361593,-0.73317 -1.885281,1.78055 -1.790066,-0.10474 -1.780544,-1.78055 0.209476,-1.37111 1.571068,-1.04738 2.627969,0.10474 -4.199037,2.20902 z"
         style="font-style:normal;font-variant:normal;font-weight:normal;font-stretch:normal;font-size:19.50028801px;font-family:Ani;-inkscape-font-specification:'Ani, Normal';font-variant-ligatures:normal;font-variant-caps:normal;font-variant-numeric:normal;font-feature-settings:normal;text-align:center;writing-mode:lr-tb;text-anchor:middle;stroke-width:0.48750722"
         id="path838" />
      <path
         d="m 75.117961,960.10547 q 0,0.3047 -0.209476,0.58082 -0.209476,0.26661 -0.552254,0.26661 -0.390387,0 -0.599863,-0.24756 -0.209476,-0.25709 -0.209476,-0.59987 0,-0.3523 0.209476,-0.60938 0.209476,-0.26661 0.599863,-0.26661 0.342778,0 0.552254,0.25709 0.209476,0.24756 0.209476,0.6189 z m -5.1512,-1.36159 0.0095,2.57084 0.0095,2.56132 h 1.4092 l -0.07617,-4.18952 q 2.237582,-1.50441 1.704371,-0.38086 -0.485603,1.17116 -0.0095,1.80911 0.476082,0.62842 1.218768,0.62842 0.666514,0 1.152117,-0.47608 0.495125,-0.47608 0.418952,-1.14259 0,-0.69508 -0.457038,-1.17116 -0.447517,-0.47608 -1.542504,-0.99025 -1.094987,-0.51417 -2.647011,0.7046 l 0.09522,-0.90456 -1.313984,-0.69507 z"
         style="font-style:normal;font-variant:normal;font-weight:normal;font-stretch:normal;font-size:19.50028801px;font-family:Ani;-inkscape-font-specification:'Ani, Normal';font-variant-ligatures:normal;font-variant-caps:normal;font-variant-numeric:normal;font-feature-settings:normal;text-align:center;writing-mode:lr-tb;text-anchor:middle;stroke-width:0.48750722"
         id="path840" />
      <path
         d="m 76.384336,949.18417 v 14.33005 l 1.285419,1.04737 3.142137,-2.09475 -0.76173,-0.28565 -2.428015,0.76173 0.04761,-9.61684 h 3.713434 l -0.618905,-0.95217 h -2.904096 v -2.09475 l -1.142595,-0.95217 z"
         style="font-style:normal;font-variant:normal;font-weight:normal;font-stretch:normal;font-size:19.50028801px;font-family:Ani;-inkscape-font-specification:'Ani, Normal';font-variant-ligatures:normal;font-variant-caps:normal;font-variant-numeric:normal;font-feature-settings:normal;text-align:center;writing-mode:lr-tb;text-anchor:middle;stroke-width:0.48750722"
         id="path842" />
      <path
         d="m 56.255621,974.74615 v 13.24458 h -1.93289 l 0.238041,-0.0952 -9.521625,-11.12126 v 11.27361 l -1.828152,-0.0571 v -13.02559 h -1.894803 l -1.304463,-1.3235 h 7.350695 l 1.713892,1.3235 h -3.999082 l 9.131238,10.14053 0.01904,-10.34048 -1.190203,0.0667 -1.437765,-1.25685 6.017667,0.0286 1.447287,1.22829 z"
         style="font-style:normal;font-variant:normal;font-weight:normal;font-stretch:normal;font-size:19.50028801px;font-family:Ani;-inkscape-font-specification:'Ani, Normal';font-variant-ligatures:normal;font-variant-caps:normal;font-variant-numeric:normal;font-feature-settings:normal;text-align:center;writing-mode:lr-tb;text-anchor:middle;stroke-width:0.48750722"
         id="path844" />
      <path
         d="m 59.340627,988.74293 0.0095,-2.84696 0.0095,-4.26569 1.485373,1.42824 v 4.7989 l 1.904325,-0.79981 -1.704371,1.47585 z m 2.523231,-9.66444 q 0,0.64747 -0.437995,1.21876 -0.437994,0.5713 -1.17116,0.5713 -0.828381,0 -1.266376,-0.52369 -0.437994,-0.53321 -0.437994,-1.26637 0,-0.73317 0.437994,-1.2759 0.437995,-0.55226 1.266376,-0.55226 0.733166,0 1.17116,0.53321 0.437995,0.52369 0.437995,1.29495 z m -0.999771,0 q 0,-0.37135 -0.209475,-0.61891 -0.209476,-0.25708 -0.552255,-0.25708 -0.390386,0 -0.599862,0.2666 -0.209476,0.25709 -0.209476,0.60939 0,0.34277 0.209476,0.59986 0.209476,0.24756 0.599862,0.24756 0.342779,0 0.552255,-0.26661 0.209475,-0.27612 0.209475,-0.58081 z"
         style="font-style:normal;font-variant:normal;font-weight:normal;font-stretch:normal;font-size:19.50028801px;font-family:Ani;-inkscape-font-specification:'Ani, Normal';font-variant-ligatures:normal;font-variant-caps:normal;font-variant-numeric:normal;font-feature-settings:normal;text-align:center;writing-mode:lr-tb;text-anchor:middle;stroke-width:0.48750722"
         id="path846" />
      <path
         d="m 63.682488,983.62982 1.628198,-0.19043 v 4.47516 l 0.866468,0.47608 0.218997,-4.47516 q 1.961455,-1.42824 3.370655,0 l 0.11426,3.80865 0.866468,0.76173 v -5.52254 q -2.608925,-1.99954 -5.541586,0 l -1.742457,-0.0952 z"
         style="font-style:normal;font-variant:normal;font-weight:normal;font-stretch:normal;font-size:19.50028801px;font-family:Ani;-inkscape-font-specification:'Ani, Normal';font-variant-ligatures:normal;font-variant-caps:normal;font-variant-numeric:normal;font-feature-settings:normal;text-align:center;writing-mode:lr-tb;text-anchor:middle;stroke-width:0.48750722"
         id="path848" />
      <path
         d="m 75.232219,991.40899 0.0095,-5.22737 0.199954,-4.26569 1.294941,1.42824 v 10.13101 l -4.189515,-1.84719 -1.609155,-1.28542 z m 2.618447,-12.14007 q 0,0.64747 -0.437995,1.21877 -0.437995,0.57129 -1.17116,0.57129 -0.828381,0 -1.266376,-0.52369 -0.437995,-0.53321 -0.437995,-1.26637 0,-0.73317 0.437995,-1.2759 0.437995,-0.55225 1.266376,-0.55225 0.733165,0 1.17116,0.53321 0.437995,0.52369 0.437995,1.29494 z m -0.999771,0 q 0,-0.37135 -0.209476,-0.61891 -0.209475,-0.25708 -0.552254,-0.25708 -0.390386,0 -0.599862,0.2666 -0.209476,0.25709 -0.209476,0.60939 0,0.34278 0.209476,0.59986 0.209476,0.24756 0.599862,0.24756 0.342779,0 0.552254,-0.2666 0.209476,-0.27613 0.209476,-0.58082 z"
         style="font-style:normal;font-variant:normal;font-weight:normal;font-stretch:normal;font-size:19.50028801px;font-family:Ani;-inkscape-font-specification:'Ani, Normal';font-variant-ligatures:normal;font-variant-caps:normal;font-variant-numeric:normal;font-feature-settings:normal;text-align:center;writing-mode:lr-tb;text-anchor:middle;stroke-width:0.48750722"
         id="path850" />
      <path
         d="m 84.001638,982.14445 -3.51348,1.09499 -0.152346,2.49466 1.17116,2.58036 2.418493,0.31422 2.504187,-2.11381 0.856947,1.64725 2.028106,0.22851 0.161867,-0.85694 -1.485373,-0.22852 -2.34232,-3.83722 -0.856946,0.62843 1.085465,1.68533 -1.790065,1.43776 -1.333028,-0.0762 -1.009292,-1.63772 0.228519,-1.87576 2.189974,-0.78077 z"
         style="font-style:normal;font-variant:normal;font-weight:normal;font-stretch:normal;font-size:19.50028801px;font-family:Ani;-inkscape-font-specification:'Ani, Normal';font-variant-ligatures:normal;font-variant-caps:normal;font-variant-numeric:normal;font-feature-settings:normal;text-align:center;writing-mode:lr-tb;text-anchor:middle;stroke-width:0.48750722"
         id="path852" />
    </g>
  </g>
  <metadata
     id="metadata24">
    <rdf:RDF>
      <cc:Work>
        <dc:format>image/svg+xml</dc:format>
        <dc:type
           rdf:resource="http://purl.org/dc/dcmitype/StillImage" />
        <cc:license
           rdf:resource="http://creativecommons.org/licenses/publicdomain/" />
        <dc:publisher>
          <cc:Agent
             rdf:about="http://openclipart.org/">
            <dc:title>Openclipart</dc:title>
          </cc:Agent>
        </dc:publisher>
        <dc:title />
        <dc:date>2010-09-10T20:38:59</dc:date>
        <dc:description>Certification icon.</dc:description>
        <dc:source>https://openclipart.org/detail/84271/certificate-by-jhnri4</dc:source>
        <dc:creator>
          <cc:Agent>
            <dc:title>jhnri4</dc:title>
          </cc:Agent>
        </dc:creator>
        <dc:subject>
          <rdf:Bag>
            <rdf:li>action</rdf:li>
            <rdf:li>certifiy</rdf:li>
            <rdf:li>gold</rdf:li>
            <rdf:li>how i did it</rdf:li>
            <rdf:li>icon</rdf:li>
          </rdf:Bag>
        </dc:subject>
      </cc:Work>
      <cc:License
         rdf:about="http://creativecommons.org/licenses/publicdomain/">
        <cc:permits
           rdf:resource="http://creativecommons.org/ns#Reproduction" />
        <cc:permits
           rdf:resource="http://creativecommons.org/ns#Distribution" />
        <cc:permits
           rdf:resource="http://creativecommons.org/ns#DerivativeWorks" />
      </cc:License>
    </rdf:RDF>
  </metadata>
</svg>
