<?xml version="1.0" encoding="UTF-8" standalone="no"?>
<!-- Created with Inkscape (http://www.inkscape.org/) -->

<svg
   xmlns:dc="http://purl.org/dc/elements/1.1/"
   xmlns:cc="http://creativecommons.org/ns#"
   xmlns:rdf="http://www.w3.org/1999/02/22-rdf-syntax-ns#"
   xmlns:svg="http://www.w3.org/2000/svg"
   xmlns="http://www.w3.org/2000/svg"
   xmlns:sodipodi="http://sodipodi.sourceforge.net/DTD/sodipodi-0.dtd"
   xmlns:inkscape="http://www.inkscape.org/namespaces/inkscape"
   width="64"
   height="64"
   viewBox="0 0 16.933333 16.933334"
   version="1.1"
   id="svg835"
   inkscape:export-filename="/home/doug/cert.ninja/frontend/favicon.ico.png"
   inkscape:export-xdpi="96"
   inkscape:export-ydpi="96"
   inkscape:version="0.92.2 (5c3e80d, 2017-08-06)"
   sodipodi:docname="favicon.svg">
  <defs
     id="defs829" />
  <sodipodi:namedview
     id="base"
     pagecolor="#ffffff"
     bordercolor="#666666"
     borderopacity="1.0"
     inkscape:pageopacity="0.0"
     inkscape:pageshadow="2"
     inkscape:zoom="3.959798"
     inkscape:cx="24.609204"
     inkscape:cy="46.648294"
     inkscape:document-units="mm"
     inkscape:current-layer="layer1"
     showgrid="false"
     units="px"
     inkscape:window-width="1920"
     inkscape:window-height="1029"
     inkscape:window-x="0"
     inkscape:window-y="25"
     inkscape:window-maximized="1" />
  <metadata
     id="metadata832">
    <rdf:RDF>
      <cc:Work
         rdf:about="">
        <dc:format>image/svg+xml</dc:format>
        <dc:type
           rdf:resource="http://purl.org/dc/dcmitype/StillImage" />
        <dc:title></dc:title>
      </cc:Work>
    </rdf:RDF>
  </metadata>
  <g
     inkscape:label="Layer 1"
     inkscape:groupmode="layer"
     id="layer1"
     transform="translate(0,-280.06665)">
    <path
       style="fill:#000000;fill-opacity:1;stroke-width:0.04066889"
       d="m 9.750379,280.14795 a 8.4833834,8.4833834 0 0 0 -8.6548531,4.43955 l 15.7771781,2.18952 a 8.4833834,8.4833834 0 0 0 -7.122325,-6.62907 z m -9.60474608,7.58435 a 8.4833834,8.4833834 0 0 0 7.27251558,9.22135 8.4833834,8.4833834 0 0 0 9.5036295,-6.89324 z"
       id="path815"
       inkscape:connector-curvature="0" />
    <path
       style="fill:#000d00;fill-opacity:1;stroke:none;stroke-width:0.04066889;stroke-opacity:1"
       d="m 4.1406831,285.90184 a 1.7254338,1.7254338 0 0 0 1.4719386,1.94619 1.7254338,1.7254338 0 0 0 1.9461996,-1.47185 z"
       id="path819-9"
       inkscape:connector-curvature="0" />
    <path
       style="fill:#000d00;fill-opacity:1;stroke:none;stroke-width:0.04066889;stroke-opacity:1"
       d="m 10.041807,286.73294 a 1.7254338,1.7254338 0 0 0 1.471937,1.94622 1.7254338,1.7254338 0 0 0 1.946206,-1.4719 z"
       id="path819-9-3"
       inkscape:connector-curvature="0" />
  </g>
</svg>
